<!DOCTYPE svg PUBLIC "-//W3C//DTD SVG 1.1//EN" "http://www.w3.org/Graphics/SVG/1.1/DTD/svg11.dtd">
<!-- Uploaded to: SVG Repo, www.svgrepo.com, Transformed by: SVG Repo Mixer Tools -->
<svg fill="#000000" height="800px" width="800px" version="1.1" id="Layer_1" xmlns="http://www.w3.org/2000/svg" xmlns:xlink="http://www.w3.org/1999/xlink" viewBox="0 0 480 480" xml:space="preserve">
<g id="SVGRepo_bgCarrier" stroke-width="0"/>
<g id="SVGRepo_tracerCarrier" stroke-linecap="round" stroke-linejoin="round"/>
<g id="SVGRepo_iconCarrier"> <g> <g> <g> <path d="M384,192c0-79.4-64.6-144-144-144S96,112.6,96,192s64.6,144,144,144S384,271.4,384,192z M112,192 c0-70.576,57.424-128,128-128s128,57.424,128,128s-57.424,128-128,128S112,262.576,112,192z"/> <path d="M240,352c-22.056,0-40,17.944-40,40c0,22.056,17.944,40,40,40c22.056,0,40-17.944,40-40C280,369.944,262.056,352,240,352 z M240,416c-13.232,0-24-10.768-24-24s10.768-24,24-24s24,10.768,24,24S253.232,416,240,416z"/> <path d="M328,264c4.416,0,8-3.584,8-8V128c0-4.416-3.584-8-8-8h-72h-32h-72c-4.416,0-8,3.584-8,8v128c0,4.416,3.584,8,8,8h72h32 H328z M232,136h16v16h-16V136z M216,224v24h-56V136h56v24c0,4.416,3.584,8,8,8h32c4.416,0,8-3.584,8-8v-24h56v112h-56v-24 c0-4.416-3.584-8-8-8h-32C219.584,216,216,219.584,216,224z M248,248h-16v-16h16V248z"/> <path d="M208,176h-24c-4.416,0-8,3.584-8,8s3.584,8,8,8h24c4.416,0,8-3.584,8-8S212.416,176,208,176z"/> <path d="M192,200h-8c-4.416,0-8,3.584-8,8s3.584,8,8,8h8c4.416,0,8-3.584,8-8S196.416,200,192,200z"/> <path d="M274.344,205.656c1.56,1.56,3.608,2.344,5.656,2.344c2.048,0,4.096-0.784,5.656-2.344l16-16 c3.128-3.128,3.128-8.184,0-11.312s-8.184-3.128-11.312,0L280,188.688l-2.344-2.344c-3.128-3.128-8.184-3.128-11.312,0 c-3.128,3.128-3.128,8.184,0,11.312L274.344,205.656z"/> <path d="M368,464h-86.664C349.552,417.248,432,278.296,432,192C432,86.136,345.864,0,240,0S48,86.136,48,192 c0,86.296,82.448,225.248,150.664,272H112c-4.416,0-8,3.584-8,8c0,4.416,3.584,8,8,8h256c4.416,0,8-3.584,8-8 C376,467.584,372.416,464,368,464z M64,192c0-97.048,78.952-176,176-176s176,78.952,176,176c0,101.24-119.968,272-176,272 C174.496,464,64,278.592,64,192z"/> </g> </g> </g> </g>
</svg>